<svg xmlns="http://www.w3.org/2000/svg" version="1.1" xmlns:xlink="http://www.w3.org/1999/xlink" xmlns:svgjs="http://svgjs.dev/svgjs" width="1000" height="1000" viewBox="0 0 1000 1000"><rect width="1000" height="1000" fill="#000000"></rect><g transform="matrix(0.7,0,0,0.7,150,281.25)"><svg viewBox="0 0 512 320" data-background-color="#ffffff" preserveAspectRatio="xMidYMid meet" height="625" width="1000" xmlns="http://www.w3.org/2000/svg" xmlns:xlink="http://www.w3.org/1999/xlink"><g id="tight-bounds" transform="matrix(1,0,0,1,0,0)"><svg viewBox="0 0 512 320" height="320" width="512"><g><svg></svg></g><g><svg viewBox="0 0 512 320" height="320" width="512"><g><path xmlns="http://www.w3.org/2000/svg" d="M96 320l0-320 320 0 0 320z" fill="#ffffff" fill-rule="nonzero" stroke="none" stroke-width="1" stroke-linecap="butt" stroke-linejoin="miter" stroke-miterlimit="10" stroke-dasharray="" stroke-dashoffset="0" font-family="none" font-weight="none" font-size="none" text-anchor="none" style="mix-blend-mode: normal" data-fill-palette-color="tertiary"></path></g><g transform="matrix(1,0,0,1,176.16907433919295,80)"><svg viewBox="0 0 159.66185132161414 160" height="160" width="159.66185132161414"><g><svg viewBox="0 0 159.66185132161414 160" height="160" width="159.66185132161414"><g><svg viewBox="0 0 230.4 230.88796537717184" height="160" width="159.66185132161414"><g transform="matrix(1,0,0,1,0,132.12309690118292)"><svg viewBox="0 0 230.4 98.7648684759889" height="98.7648684759889" width="230.4"><g id="textblocktransform"><svg viewBox="0 0 230.4 98.7648684759889" height="98.7648684759889" width="230.4" id="textblock"><g><svg viewBox="0 0 230.4 58.55278195488722" height="58.55278195488722" width="230.4"><g transform="matrix(1,0,0,1,0,0)"><svg width="230.4" viewBox="2 -32.70000076293945 132.99000549316406 33.79999923706055" height="58.55278195488722" data-palette-color="#ffffff"><path d="M30.85 0.1L15.8 0.2 4.35 0.05Q3.5 0.05 2.75-0.4 2-0.85 2-1.6L2-1.6 2-4.55Q2-5.8 2.78-6.63 3.55-7.45 5.6-9.6L5.6-9.6Q10.1-14.3 12.45-17.2L12.45-17.2Q12.9-17.75 12.78-18.2 12.65-18.65 12.1-18.65L12.1-18.65 4.7-18.65Q3.95-18.65 3.53-19.18 3.1-19.7 3.1-20.35L3.1-20.35 3.1-23.5Q3.1-25.45 4.7-25.45L4.7-25.45Q23.15-25.45 29.2-25.4L29.2-25.4Q30.05-25.4 30.8-24.95 31.55-24.5 31.55-23.75L31.55-23.75 31.55-20.8Q31.55-19.65 30.48-18.4 29.4-17.15 26.28-13.88 23.15-10.6 21.1-8.15L21.1-8.15Q20.65-7.6 20.78-7.15 20.9-6.7 21.45-6.7L21.45-6.7 30.85-6.7Q31.6-6.7 32.02-6.18 32.45-5.65 32.45-5L32.45-5 32.45-1.85Q32.45 0.1 30.85 0.1L30.85 0.1ZM43.85-23.93Q46.15-25.05 48.57-25.55 51-26.05 54.57-26.05 58.15-26.05 61.4-25.18 64.65-24.3 66.25-22.8L66.25-22.8Q69.05-20.05 69.05-16.35L69.05-16.35Q69.05-10.55 59.25-10.55L59.25-10.55Q55.8-10.55 52.1-11.2L52.1-11.2Q52.25-7.9 53.32-6.55 54.4-5.2 57.15-5.2 59.9-5.2 61.7-5.8 63.5-6.4 64.6-7.03 65.7-7.65 66.47-7.65 67.25-7.65 67.8-6.95L67.8-6.95Q68.65-6.05 68.65-4.48 68.65-2.9 68.02-2.33 67.4-1.75 66.05-1.2L66.05-1.2Q61.3 0.8 52.55 0.8L52.55 0.8Q45.3 0.8 40.62-2.68 35.95-6.15 35.95-12.05L35.95-12.05Q35.95-14.9 37-17.28 38.05-19.65 39.8-21.23 41.55-22.8 43.85-23.93ZM55.45-20.35L55.45-20.35Q52.4-20.35 52.15-15.4L52.15-15.4Q54.55-15.2 54.65-15.2L54.65-15.2Q57.95-15.2 57.95-17.4L57.95-17.4Q57.95-20.35 55.45-20.35ZM85.05-6.55L85.05-6.55Q85.05-7.95 83.87-8.75 82.7-9.55 81.02-9.98 79.35-10.4 77.65-10.98 75.95-11.55 74.77-12.98 73.6-14.4 73.6-16.75L73.6-16.75Q73.6-26.05 88.05-26.05L88.05-26.05Q94.25-26.05 98-23.95L98-23.95Q99.2-23.3 99.7-22.73 100.2-22.15 100.2-20.7 100.2-19.25 99.62-18.53 99.05-17.8 98.47-17.8 97.9-17.8 95.97-18.93 94.05-20.05 92-20.1L92-20.1Q90.35-20.1 90.35-18.45L90.35-18.45Q90.35-17.35 91.5-16.7 92.65-16.05 94.3-15.58 95.95-15.1 97.6-14.43 99.25-13.75 100.4-12.18 101.55-10.6 101.55-8.2L101.55-8.2Q101.55 1.1 87.1 1.1L87.1 1.1Q80.05 1.1 75.6-0.95L75.6-0.95Q74.25-1.5 73.65-2.08 73.05-2.65 73.05-4.17 73.05-5.7 73.67-6.35 74.3-7 74.72-7 75.15-7 77.6-5.9 80.05-4.8 82.55-4.8 85.05-4.8 85.05-6.55ZM108.64-11.55L108.64-18.2Q108.64-19 107.54-19L107.54-19Q105.59-19 105.24-20.3L105.24-20.3Q105.04-20.95 105.04-22.3 105.04-23.65 105.42-24.23 105.79-24.8 106.87-25.08 107.94-25.35 108.82-26.03 109.69-26.7 112.42-29 115.14-31.3 116.22-32 117.29-32.7 118.89-32.7L118.89-32.7 121.39-32.7Q123.14-32.7 123.74-32.27 124.34-31.85 124.34-30.95L124.34-30.95 124.34-26.2Q124.34-25.15 125.24-25.15L125.24-25.15 130.59-25.15Q131.89-25.15 132.47-24.6 133.04-24.05 133.04-22.08 133.04-20.1 132.44-19.55 131.84-19 130.64-19L130.64-19 125.44-19Q124.74-19 124.54-18.65 124.34-18.3 124.34-17.65L124.34-17.65 124.34-11.65Q124.44-9.95 125.62-8.8 126.79-7.65 128.94-7.65L128.94-7.65Q129.99-7.65 131.54-8.22 133.09-8.8 133.64-8.8L133.64-8.8Q134.99-8.8 134.99-4.8L134.99-4.8Q134.99-1.9 133.44-1.3L133.44-1.3Q131.84-0.75 128.94-0.4 126.04-0.05 123.14-0.05 120.24-0.05 117.62-0.53 114.99-1 112.84-2.2L112.84-2.2Q108.64-4.65 108.64-11.55L108.64-11.55Z" opacity="1" transform="matrix(1,0,0,1,0,0)" fill="#000000" class="undefined-text-0" data-fill-palette-color="quaternary" id="text-0"></path></svg></g></svg></g><g transform="matrix(1,0,0,1,0,72.37568850766918)"><svg viewBox="0 0 230.4 26.389179968319727" height="26.389179968319727" width="230.4"><g transform="matrix(1,0,0,1,0,0)"><svg width="230.4" viewBox="1.4500000476837158 -37 410.30999755859375 47" height="26.389179968319727" data-palette-color="#ffffff"><path d="M14.5-36.9L14.5-36.9Q15.35-36.9 16.28-36.7 17.2-36.5 17.88-36 18.55-35.5 18.55-34.65L18.55-34.65Q18.55-33.85 18.05-33.33 17.55-32.8 16.85-32.8L16.85-32.8Q16.4-32.8 15.6-33.08 14.8-33.35 13.95-33.35L13.95-33.35Q12.8-33.35 12.08-32.85 11.35-32.35 11.03-31.53 10.7-30.7 10.7-29.7L10.7-29.7 10.7-2.05Q10.7-1.2 10.13-0.6 9.55 0 8.7 0L8.7 0Q7.8 0 7.25-0.6 6.7-1.2 6.7-2.05L6.7-2.05 6.7-29.65Q6.7-33 8.78-34.95 10.85-36.9 14.5-36.9ZM3.35-25.45L15.9-25.45Q16.7-25.45 17.25-24.93 17.8-24.4 17.8-23.6L17.8-23.6Q17.8-22.8 17.25-22.28 16.7-21.75 15.9-21.75L15.9-21.75 3.35-21.75Q2.55-21.75 2-22.3 1.45-22.85 1.45-23.6L1.45-23.6Q1.45-24.45 2-24.95 2.55-25.45 3.35-25.45L3.35-25.45ZM46.75-13L46.75-13Q46.75-9.1 45.05-6.05 43.35-3 40.42-1.25 37.5 0.5 33.8 0.5L33.8 0.5Q30.15 0.5 27.22-1.25 24.3-3 22.57-6.05 20.85-9.1 20.85-13L20.85-13Q20.85-16.9 22.57-19.95 24.3-23 27.22-24.75 30.15-26.5 33.8-26.5L33.8-26.5Q37.5-26.5 40.42-24.75 43.35-23 45.05-19.95 46.75-16.9 46.75-13ZM42.75-13L42.75-13Q42.75-15.9 41.57-18.1 40.4-20.3 38.37-21.55 36.35-22.8 33.8-22.8L33.8-22.8Q31.3-22.8 29.25-21.55 27.2-20.3 26.02-18.1 24.85-15.9 24.85-13L24.85-13Q24.85-10.15 26.02-7.95 27.2-5.75 29.25-4.48 31.3-3.2 33.8-3.2L33.8-3.2Q36.35-3.2 38.37-4.48 40.4-5.75 41.57-7.95 42.75-10.15 42.75-13ZM76.84-13L76.84-13Q76.84-9.1 75.14-6.05 73.44-3 70.52-1.25 67.59 0.5 63.89 0.5L63.89 0.5Q60.24 0.5 57.32-1.25 54.39-3 52.67-6.05 50.95-9.1 50.95-13L50.95-13Q50.95-16.9 52.67-19.95 54.39-23 57.32-24.75 60.24-26.5 63.89-26.5L63.89-26.5Q67.59-26.5 70.52-24.75 73.44-23 75.14-19.95 76.84-16.9 76.84-13ZM72.84-13L72.84-13Q72.84-15.9 71.67-18.1 70.5-20.3 68.47-21.55 66.44-22.8 63.89-22.8L63.89-22.8Q61.39-22.8 59.34-21.55 57.3-20.3 56.12-18.1 54.95-15.9 54.95-13L54.95-13Q54.95-10.15 56.12-7.95 57.3-5.75 59.34-4.48 61.39-3.2 63.89-3.2L63.89-3.2Q66.44-3.2 68.47-4.48 70.5-5.75 71.67-7.95 72.84-10.15 72.84-13ZM103.69-37L103.69-37Q104.59-37 105.14-36.43 105.69-35.85 105.69-35L105.69-35 105.69-2.05Q105.69-1.2 105.12-0.6 104.54 0 103.69 0L103.69 0Q102.84 0 102.27-0.6 101.69-1.2 101.69-2.05L101.69-2.05 101.69-6.8 102.64-7.15Q102.64-5.95 101.92-4.63 101.19-3.3 99.87-2.15 98.54-1 96.79-0.25 95.04 0.5 92.99 0.5L92.99 0.5Q89.59 0.5 86.89-1.25 84.19-3 82.62-6.05 81.04-9.1 81.04-13L81.04-13Q81.04-16.95 82.62-20 84.19-23.05 86.87-24.78 89.54-26.5 92.89-26.5L92.89-26.5Q94.99-26.5 96.82-25.8 98.64-25.1 100.04-23.9 101.44-22.7 102.22-21.25 102.99-19.8 102.99-18.35L102.99-18.35 101.69-18.65 101.69-35Q101.69-35.85 102.27-36.43 102.84-37 103.69-37ZM93.39-3.2L93.39-3.2Q95.94-3.2 97.84-4.48 99.74-5.75 100.84-7.98 101.94-10.2 101.94-13L101.94-13Q101.94-15.85 100.84-18.05 99.74-20.25 97.82-21.53 95.89-22.8 93.39-22.8L93.39-22.8Q90.94-22.8 89.02-21.53 87.09-20.25 85.99-18.05 84.89-15.85 84.89-13L84.89-13Q84.89-10.25 85.99-8.03 87.09-5.8 89.02-4.5 90.94-3.2 93.39-3.2ZM147.89-37L147.89-37Q148.79-37 149.34-36.43 149.89-35.85 149.89-35L149.89-35 149.89-2.05Q149.89-1.2 149.31-0.6 148.74 0 147.89 0L147.89 0Q147.04 0 146.46-0.6 145.89-1.2 145.89-2.05L145.89-2.05 145.89-6.8 146.84-7.15Q146.84-5.95 146.11-4.63 145.39-3.3 144.06-2.15 142.74-1 140.99-0.25 139.24 0.5 137.19 0.5L137.19 0.5Q133.79 0.5 131.09-1.25 128.39-3 126.81-6.05 125.24-9.1 125.24-13L125.24-13Q125.24-16.95 126.81-20 128.39-23.05 131.06-24.78 133.74-26.5 137.09-26.5L137.09-26.5Q139.19-26.5 141.01-25.8 142.84-25.1 144.24-23.9 145.64-22.7 146.41-21.25 147.19-19.8 147.19-18.35L147.19-18.35 145.89-18.65 145.89-35Q145.89-35.85 146.46-36.43 147.04-37 147.89-37ZM137.59-3.2L137.59-3.2Q140.14-3.2 142.04-4.48 143.94-5.75 145.04-7.98 146.14-10.2 146.14-13L146.14-13Q146.14-15.85 145.04-18.05 143.94-20.25 142.01-21.53 140.09-22.8 137.59-22.8L137.59-22.8Q135.14-22.8 133.21-21.53 131.29-20.25 130.19-18.05 129.09-15.85 129.09-13L129.09-13Q129.09-10.25 130.19-8.03 131.29-5.8 133.21-4.5 135.14-3.2 137.59-3.2ZM168.99 0.5L168.99 0.5Q164.99 0.5 161.99-1.2 158.99-2.9 157.34-5.88 155.69-8.85 155.69-12.75L155.69-12.75Q155.69-17.1 157.41-20.18 159.14-23.25 161.89-24.88 164.64-26.5 167.74-26.5L167.74-26.5Q170.09-26.5 172.21-25.65 174.34-24.8 176.01-23.18 177.69-21.55 178.69-19.28 179.69-17 179.74-14.2L179.74-14.2Q179.69-13.4 179.09-12.85 178.49-12.3 177.69-12.3L177.69-12.3 157.94-12.3 157.03-15.75 176.29-15.75 175.49-15.05 175.49-16.15Q175.34-18.2 174.16-19.68 172.99-21.15 171.28-21.95 169.59-22.75 167.74-22.75L167.74-22.75Q166.24-22.75 164.76-22.23 163.28-21.7 162.11-20.53 160.94-19.35 160.24-17.5 159.53-15.65 159.53-13.05L159.53-13.05Q159.53-10.15 160.71-7.95 161.89-5.75 163.99-4.48 166.09-3.2 168.84-3.2L168.84-3.2Q170.64-3.2 171.94-3.65 173.24-4.1 174.16-4.78 175.09-5.45 175.74-6.15L175.74-6.15Q176.39-6.6 177.04-6.6L177.04-6.6Q177.74-6.6 178.24-6.1 178.74-5.6 178.74-4.9L178.74-4.9Q178.74-4.05 177.94-3.4L177.94-3.4Q176.49-1.85 174.11-0.68 171.74 0.5 168.99 0.5ZM189.88-35L189.88-2.05Q189.88-1.2 189.28-0.6 188.68 0 187.83 0L187.83 0Q186.98 0 186.43-0.6 185.88-1.2 185.88-2.05L185.88-2.05 185.88-35Q185.88-35.85 186.46-36.43 187.03-37 187.88-37L187.88-37Q188.78-37 189.33-36.43 189.88-35.85 189.88-35L189.88-35ZM201.48-24.25L201.48-2.05Q201.48-1.2 200.91-0.6 200.33 0 199.48 0L199.48 0Q198.58 0 198.03-0.6 197.48-1.2 197.48-2.05L197.48-2.05 197.48-24.25Q197.48-25.1 198.06-25.68 198.63-26.25 199.48-26.25L199.48-26.25Q200.33-26.25 200.91-25.68 201.48-25.1 201.48-24.25L201.48-24.25ZM199.48-29.6L199.48-29.6Q198.23-29.6 197.63-30.1 197.03-30.6 197.03-31.65L197.03-31.65 197.03-32.35Q197.03-33.4 197.68-33.9 198.33-34.4 199.53-34.4L199.53-34.4Q200.73-34.4 201.33-33.9 201.93-33.4 201.93-32.35L201.93-32.35 201.93-31.65Q201.93-30.6 201.31-30.1 200.68-29.6 199.48-29.6ZM208.68-26.3L208.68-26.3Q209.28-26.3 209.83-25.98 210.38-25.65 210.63-25.05L210.63-25.05 218.93-5.55 218.13-5.15 226.58-25Q227.13-26.35 228.43-26.3L228.43-26.3Q229.18-26.3 229.73-25.8 230.28-25.3 230.28-24.55L230.28-24.55Q230.28-24.25 230.2-23.98 230.13-23.7 230.03-23.5L230.03-23.5 220.38-1.3Q219.83-0.05 218.63 0L218.63 0Q217.98 0.05 217.4-0.28 216.83-0.6 216.58-1.3L216.58-1.3 206.93-23.45Q206.83-23.65 206.75-23.9 206.68-24.15 206.68-24.5L206.68-24.5Q206.68-25.15 207.2-25.73 207.73-26.3 208.68-26.3ZM247.13 0.5L247.13 0.5Q243.13 0.5 240.13-1.2 237.13-2.9 235.48-5.88 233.83-8.85 233.83-12.75L233.83-12.75Q233.83-17.1 235.55-20.18 237.28-23.25 240.03-24.88 242.78-26.5 245.88-26.5L245.88-26.5Q248.23-26.5 250.35-25.65 252.48-24.8 254.15-23.18 255.83-21.55 256.83-19.28 257.83-17 257.88-14.2L257.88-14.2Q257.83-13.4 257.23-12.85 256.63-12.3 255.83-12.3L255.83-12.3 236.08-12.3 235.18-15.75 254.43-15.75 253.63-15.05 253.63-16.15Q253.48-18.2 252.3-19.68 251.13-21.15 249.43-21.95 247.73-22.75 245.88-22.75L245.88-22.75Q244.38-22.75 242.9-22.23 241.43-21.7 240.25-20.53 239.08-19.35 238.38-17.5 237.68-15.65 237.68-13.05L237.68-13.05Q237.68-10.15 238.85-7.95 240.03-5.75 242.13-4.48 244.23-3.2 246.98-3.2L246.98-3.2Q248.78-3.2 250.08-3.65 251.38-4.1 252.3-4.78 253.23-5.45 253.88-6.15L253.88-6.15Q254.53-6.6 255.18-6.6L255.18-6.6Q255.88-6.6 256.38-6.1 256.88-5.6 256.88-4.9L256.88-4.9Q256.88-4.05 256.08-3.4L256.08-3.4Q254.63-1.85 252.25-0.68 249.88 0.5 247.13 0.5ZM265.62 0L265.62 0Q264.77 0 264.2-0.6 263.62-1.2 263.62-2.05L263.62-2.05 263.62-23.85Q263.62-24.7 264.2-25.28 264.77-25.85 265.62-25.85L265.62-25.85Q266.52-25.85 267.07-25.28 267.62-24.7 267.62-23.85L267.62-23.85 267.62-17.25 267.02-18.3Q267.32-19.85 268.1-21.33 268.87-22.8 270.07-23.98 271.27-25.15 272.82-25.83 274.37-26.5 276.22-26.5L276.22-26.5Q277.32-26.5 278.25-25.98 279.17-25.45 279.17-24.5L279.17-24.5Q279.17-23.45 278.62-22.95 278.07-22.45 277.37-22.45L277.37-22.45Q276.72-22.45 276.12-22.73 275.52-23 274.62-23L274.62-23Q273.37-23 272.15-22.33 270.92-21.65 269.9-20.4 268.87-19.15 268.25-17.57 267.62-16 267.62-14.2L267.62-14.2 267.62-2.05Q267.62-1.2 267.05-0.6 266.47 0 265.62 0ZM303.02-26.25L303.02-26.25Q303.87-26.25 304.45-25.68 305.02-25.1 305.02-24.25L305.02-24.25 305.02-2.45Q305.02 1.75 303.37 4.53 301.72 7.3 298.95 8.65 296.17 10 292.67 10L292.67 10Q290.72 10 288.92 9.6 287.12 9.2 285.97 8.55L285.97 8.55Q285.02 8.1 284.65 7.43 284.27 6.75 284.52 6L284.52 6Q284.87 5.1 285.55 4.75 286.22 4.4 286.97 4.75L286.97 4.75Q287.77 5.1 289.3 5.73 290.82 6.35 292.72 6.35L292.72 6.35Q295.32 6.35 297.17 5.35 299.02 4.35 300.02 2.43 301.02 0.5 301.02-2.35L301.02-2.35 301.02-5.9 301.62-4.65Q300.82-3.1 299.47-1.95 298.12-0.8 296.37-0.15 294.62 0.5 292.52 0.5L292.52 0.5Q289.67 0.5 287.7-0.73 285.72-1.95 284.7-4.13 283.67-6.3 283.67-9.15L283.67-9.15 283.67-24.25Q283.67-25.1 284.25-25.68 284.82-26.25 285.67-26.25L285.67-26.25Q286.57-26.25 287.12-25.68 287.67-25.1 287.67-24.25L287.67-24.25 287.67-10.05Q287.67-6.65 289.17-4.93 290.67-3.2 293.82-3.2L293.82-3.2Q295.82-3.2 297.45-4.1 299.07-5 300.05-6.58 301.02-8.15 301.02-10.05L301.02-10.05 301.02-24.25Q301.02-25.1 301.57-25.68 302.12-26.25 303.02-26.25ZM347.22-26.1L347.22-26.1Q348.12-26.1 348.67-25.53 349.22-24.95 349.22-24.1L349.22-24.1 349.22-2.05Q349.22-1.2 348.64-0.6 348.07 0 347.22 0L347.22 0Q346.37 0 345.79-0.6 345.22-1.2 345.22-2.05L345.22-2.05 345.22-6.8 346.17-6.9Q346.17-5.8 345.42-4.5 344.67-3.2 343.37-2.08 342.07-0.95 340.32-0.23 338.57 0.5 336.52 0.5L336.52 0.5Q333.12 0.5 330.39-1.28 327.67-3.05 326.12-6.1 324.57-9.15 324.57-13.05L324.57-13.05Q324.57-17 326.14-20.03 327.72-23.05 330.39-24.78 333.07-26.5 336.42-26.5L336.42-26.5Q338.57-26.5 340.42-25.8 342.27-25.1 343.64-23.9 345.02-22.7 345.77-21.25 346.52-19.8 346.52-18.35L346.52-18.35 345.22-18.65 345.22-24.1Q345.22-24.95 345.79-25.53 346.37-26.1 347.22-26.1ZM336.92-3.2L336.92-3.2Q339.42-3.2 341.34-4.5 343.27-5.8 344.37-8.03 345.47-10.25 345.47-13.05L345.47-13.05Q345.47-15.8 344.37-18.03 343.27-20.25 341.34-21.53 339.42-22.8 336.92-22.8L336.92-22.8Q334.47-22.8 332.54-21.55 330.62-20.3 329.52-18.1 328.42-15.9 328.42-13.05L328.42-13.05Q328.42-10.25 329.52-8.03 330.62-5.8 332.54-4.5 334.47-3.2 336.92-3.2ZM369.36-26.25L369.36-26.25Q372.76-26.25 375.46-24.55 378.16-22.85 379.74-19.85 381.31-16.85 381.31-12.95L381.31-12.95Q381.31-9.1 379.74-6.08 378.16-3.05 375.49-1.33 372.81 0.4 369.46 0.4L369.46 0.4Q367.61 0.4 365.99-0.18 364.36-0.75 363.04-1.68 361.71-2.6 360.81-3.78 359.91-4.95 359.51-6.1L359.51-6.1 360.61-6.8 360.61 7.95Q360.61 8.8 360.06 9.4 359.51 10 358.61 10L358.61 10Q357.76 10 357.19 9.43 356.61 8.85 356.61 7.95L356.61 7.95 356.61-24Q356.61-24.85 357.19-25.43 357.76-26 358.61-26L358.61-26Q359.51-26 360.06-25.43 360.61-24.85 360.61-24L360.61-24 360.61-19.55 359.86-19.95Q360.21-21.2 361.09-22.35 361.96-23.5 363.24-24.38 364.51-25.25 366.09-25.75 367.66-26.25 369.36-26.25ZM368.91-22.55L368.91-22.55Q366.41-22.55 364.49-21.3 362.56-20.05 361.49-17.9 360.41-15.75 360.41-12.95L360.41-12.95Q360.41-10.2 361.49-8 362.56-5.8 364.49-4.55 366.41-3.3 368.91-3.3L368.91-3.3Q371.41-3.3 373.31-4.55 375.21-5.8 376.31-8 377.41-10.2 377.41-12.95L377.41-12.95Q377.41-15.75 376.31-17.9 375.21-20.05 373.31-21.3 371.41-22.55 368.91-22.55ZM399.81-26.25L399.81-26.25Q403.21-26.25 405.91-24.55 408.61-22.85 410.19-19.85 411.76-16.85 411.76-12.95L411.76-12.95Q411.76-9.1 410.19-6.08 408.61-3.05 405.94-1.33 403.26 0.4 399.91 0.4L399.91 0.4Q398.06 0.4 396.44-0.18 394.81-0.75 393.49-1.68 392.16-2.6 391.26-3.78 390.36-4.95 389.96-6.1L389.96-6.1 391.06-6.8 391.06 7.95Q391.06 8.8 390.51 9.4 389.96 10 389.06 10L389.06 10Q388.21 10 387.64 9.43 387.06 8.85 387.06 7.95L387.06 7.95 387.06-24Q387.06-24.85 387.64-25.43 388.21-26 389.06-26L389.06-26Q389.96-26 390.51-25.43 391.06-24.85 391.06-24L391.06-24 391.06-19.55 390.31-19.95Q390.66-21.2 391.54-22.35 392.41-23.5 393.69-24.38 394.96-25.25 396.54-25.75 398.11-26.25 399.81-26.25ZM399.36-22.55L399.36-22.55Q396.86-22.55 394.94-21.3 393.01-20.05 391.94-17.9 390.86-15.75 390.86-12.95L390.86-12.95Q390.86-10.2 391.94-8 393.01-5.8 394.94-4.55 396.86-3.3 399.36-3.3L399.36-3.3Q401.86-3.3 403.76-4.55 405.66-5.8 406.76-8 407.86-10.2 407.86-12.95L407.86-12.95Q407.86-15.75 406.76-17.9 405.66-20.05 403.76-21.3 401.86-22.55 399.36-22.55Z" opacity="1" transform="matrix(1,0,0,1,0,0)" fill="#000000" class="undefined-text-1" data-fill-palette-color="quaternary" id="text-1"></path></svg></g></svg></g></svg></g></svg></g><g transform="matrix(1,0,0,1,44.0064,0)"><svg viewBox="0 0 142.3872 118.30019034840097" height="118.30019034840097" width="142.3872"><g><svg xmlns:x="http://ns.adobe.com/Extensibility/1.0/" xmlns:i="http://ns.adobe.com/AdobeIllustrator/10.0/" xmlns:graph="http://ns.adobe.com/Graphs/1.0/" xmlns="http://www.w3.org/2000/svg" xmlns:xlink="http://www.w3.org/1999/xlink" version="1.1" x="0" y="0" viewBox="4.999418258666992 12.61198902130127 90.0022964477539 74.77700805664062" enable-background="new 0 0 100 100" xml:space="preserve" height="118.30019034840097" width="142.3872" class="icon-icon-0" data-fill-palette-color="quaternary" id="icon-0"><g fill="#ffffff" data-fill-palette-color="quaternary"><path fill="#000000" d="M45.235 87.389c0 0 0 0-0.002 0-9.646 0-18.481-3.129-24.995-8.827-1.141 0.27-2.297 0.407-3.448 0.407-4.713 0-8.687-2.234-10.631-5.979-2.437-4.7-0.931-10.76 3.562-14.722-1.67-15.718 7.964-31.79 24.216-40.213 6.87-3.559 14.417-5.443 21.823-5.443 9.812 0 18.759 3.227 25.301 9.103 5.444-0.793 10.529 1.517 12.762 5.826 2.259 4.354 1.205 9.801-2.596 13.787 1.838 15.629-7.997 32.237-24.167 40.622C60.188 85.507 52.642 87.389 45.235 87.389zM19.957 75.856c0.4 0 0.793 0.146 1.094 0.426 6.124 5.663 14.675 8.781 24.069 8.781 0.005 0 0.005 0 0.005 0 7.069 0 14.28-1.801 20.858-5.209 15.64-8.105 25.075-24.178 22.939-39.083-0.072-0.517 0.109-1.034 0.487-1.394 3.313-3.127 4.359-7.503 2.601-10.89-1.736-3.349-5.993-5.047-10.398-4.152-0.512 0.108-1.043-0.047-1.422-0.407-6.146-5.796-14.774-8.992-24.293-8.992-7.074 0-14.285 1.803-20.863 5.216-15.498 8.028-24.948 23.979-22.979 38.779 0.07 0.561-0.155 1.123-0.603 1.476-3.925 3.071-5.391 7.971-3.481 11.647 1.883 3.639 6.783 5.284 11.527 3.869C19.646 75.879 19.806 75.856 19.957 75.856z" data-fill-palette-color="quaternary"></path><path fill="#000000" d="M31.748 28.768c0 0-19.636 8.236-15.37 25.142C19.077 64.604 15.288 44.204 31.748 28.768z" data-fill-palette-color="quaternary"></path></g></svg></g></svg></g><g></g></svg></g></svg></g></svg></g></svg></g><defs></defs></svg><rect width="512" height="320" fill="none" stroke="none" visibility="hidden"></rect></g></svg></g></svg>